<?xml version="1.0" encoding="UTF-8"?><svg id="Camada_2" xmlns="http://www.w3.org/2000/svg" viewBox="0 0 380.9 286.29"><g id="Camada_1-2"><path d="M264.28.94c-.33-.31-.66-.62-.99-.93.69-.08,1.03.22.99.93Z" style="fill:#fec91a; stroke-width:0px;"/><path d="M51.23,152.81c1.96-12.93,7.73-24.26,15.12-34.76,11.92-16.95,27.11-29.57,47.75-34.65,6.61-1.63,13.28-1.6,20-1.34,12.2.47,24.26-.02,35.84-4.57,4.66-1.83,8.72-4.52,13.41-8.83-.87,9.33-3.11,16.66-9.83,21.77-8.69,6.61-19.13,9.32-29.4,12.34-2.25.66-4.73.66-6.89,2.27,2.07,3.24,5,5.44,7.91,7.6,11.54,8.58,24.46,14.45,38.19,18.4,17.03,4.89,32.47-.2,47.18-8.55,7.8-4.43,14.86-9.91,21.79-15.58,2.02-1.65,3.74-4.09,6.87-3.85.29,2.23-1.25,3.46-2.59,4.84-4.78,4.91-10.07,9.22-15.4,13.51-21.19,17.03-45.02,22.57-71.51,16.39-11.16-2.6-21.82-6.75-32.46-10.93-12.38-4.87-24.97-7.93-38.46-5.2-17.29,3.49-30.87,12.76-42.18,25.92-1.6,1.86-2.95,4.13-5.34,5.25Z" style="fill:#fec91a; stroke-width:0px;"/><path d="M51.23,152.81c2.39-1.11,3.74-3.38,5.34-5.25,11.31-13.16,24.89-22.42,42.18-25.92,13.49-2.73,26.08.33,38.46,5.2,10.64,4.18,21.3,8.33,32.46,10.93,26.48,6.18,50.31.64,71.51-16.39,5.33-4.28,10.62-8.6,15.4-13.51,1.34-1.37,2.88-2.6,2.59-4.84.63-.02,1.26-.05,1.9-.07.32.3.64.6.96.9-1.97,6.37-5.9,11.62-9.95,16.7-23.24,29.19-53.43,39.11-89.77,32.49-12.6-2.3-24.29-7.53-36.75-10.19-24-5.13-47.22-4.65-68.64,9.21-2.12,1.37-4.08,2.98-6.19,4.53-.71-1.53.13-2.63.5-3.79Z" style="fill:#febc02; stroke-width:0px;"/><path d="M330.45,12.73c-1.34,12.54-6.67,23.56-13.34,33.95-10.91,16.97-25.19,30.01-44.7,36.48-7.79,2.58-15.8,3.58-24.05,2.87-11.55-.99-22.94.03-34.06,3.48-5.85,1.81-11.09,4.71-15.55,9.21-1.33-7.02,3.22-17.3,9.56-21.68,9.49-6.56,20.49-9.43,31.39-12.49,1.37-.39,2.76-.71,4.11-1.06.21-1.74-1.13-2.36-2-3.16-13.77-12.61-30.23-20.45-48.19-24.24-18.34-3.87-34.51,3.52-49.41,13.6-5.94,4.01-11.37,8.77-17.16,13.01-2.17,1.59-4.36,4.12-7.59,1.9,6.24-6.79,12.92-13.07,20.14-18.86,14.93-11.99,32.02-18.43,50.95-18.37,15.64.04,30.67,4.54,45.2,10.38,11.2,4.51,22.45,9.55,34.71,9.36,22.44-.35,40.02-11.06,54.26-27.78,1.34-1.58,3.61-2.96,2.86-5.69,0,0-.02.06-.02.06.34-.34.68-.67,1.02-1,0,0-.04.03-.04.03.65,0,1.29.02,1.94.03Z" style="fill:#50cf64; stroke-width:0px;"/><path d="M327.56,13.63c.75,2.74-1.52,4.12-2.86,5.69-14.24,16.72-31.81,27.44-54.26,27.78-12.25.19-23.51-4.85-34.71-9.36-14.52-5.85-29.56-10.34-45.2-10.38-18.92-.05-36.02,6.39-50.95,18.37-7.21,5.79-13.9,12.07-20.14,18.86-1.48-.71-.46-1.53-.07-2.27,14.09-26.45,35.15-43.6,65.2-48.6,19.42-3.23,37.96.88,56.21,7.09,17.24,5.87,34.86,8.93,53.06,6.27,10.94-1.6,21.27-5.13,30.45-11.55,1.03-.72,2.16-1.28,3.25-1.91Z" style="fill:#01b445; stroke-width:0px;"/><path d="M20.72,193.95c9.8,0,17.19,5.52,19.54,14.44h-11.03c-1.7-3.52-4.81-5.28-8.63-5.28-6.16,0-10.39,4.58-10.39,11.85s4.23,11.85,10.39,11.85c3.81,0,6.92-1.76,8.63-5.28h11.03c-2.35,8.92-9.74,14.38-19.54,14.38-12.15,0-20.72-8.63-20.72-20.95s8.57-21.01,20.72-21.01Z" style="fill:#333; stroke-width:0px;"/><path d="M61.32,236.08c-9.62,0-16.9-6.46-16.9-16.84s7.45-16.84,17.02-16.84,17.02,6.46,17.02,16.84-7.51,16.84-17.14,16.84ZM61.32,227.4c3.58,0,6.92-2.64,6.92-8.16s-3.29-8.16-6.81-8.16-6.81,2.58-6.81,8.16,3.05,8.16,6.69,8.16Z" style="fill:#333; stroke-width:0px;"/><path d="M98.7,236.08c-9.62,0-16.9-6.46-16.9-16.84s7.45-16.84,17.02-16.84,17.02,6.46,17.02,16.84-7.51,16.84-17.14,16.84ZM98.7,227.4c3.58,0,6.92-2.64,6.92-8.16s-3.29-8.16-6.81-8.16-6.81,2.58-6.81,8.16,3.05,8.16,6.69,8.16Z" style="fill:#333; stroke-width:0px;"/><path d="M137.43,220.83h-6.22v14.79h-10.04v-41.2h16.26c10.09,0,15.14,5.69,15.14,13.26,0,6.81-4.64,13.15-15.14,13.15ZM136.67,212.85c3.99,0,5.69-2,5.69-5.17s-1.7-5.16-5.69-5.16h-5.46v10.33h5.46Z" style="fill:#333; stroke-width:0px;"/><path d="M170.23,202.4c4.87,0,8.33,2.23,10.09,5.11v-4.64h10.04v32.75h-10.04v-4.64c-1.82,2.88-5.28,5.11-10.15,5.11-7.98,0-14.38-6.57-14.38-16.9s6.4-16.78,14.44-16.78ZM173.17,211.14c-3.76,0-7.16,2.82-7.16,8.04s3.4,8.16,7.16,8.16,7.16-2.88,7.16-8.1-3.35-8.1-7.16-8.1Z" style="fill:#333; stroke-width:0px;"/><path d="M207.67,235.61h-10.04v-32.75h10.04v5.46c2.29-3.46,5.87-5.81,10.27-5.81v10.62h-2.76c-4.75,0-7.51,1.64-7.51,7.28v15.2Z" style="fill:#333; stroke-width:0px;"/><path d="M224.33,211.2h-3.99v-8.33h3.99v-7.98h10.04v7.98h6.57v8.33h-6.57v13.15c0,1.94.82,2.76,3.05,2.76h3.58v8.51h-5.11c-6.81,0-11.56-2.88-11.56-11.38v-13.03Z" style="fill:#333; stroke-width:0px;"/><path d="M245.64,194.07c0-3.05,2.41-5.46,5.99-5.46s5.93,2.41,5.93,5.46-2.41,5.4-5.93,5.4-5.99-2.41-5.99-5.4ZM246.58,202.87h10.04v32.75h-10.04v-32.75Z" style="fill:#333; stroke-width:0px;"/><path d="M263.89,192.19h10.04v43.43h-10.04v-43.43Z" style="fill:#333; stroke-width:0px;"/><path d="M281.2,192.19h10.04v15.08c2-2.82,5.58-4.75,10.09-4.75,7.45,0,12.44,5.16,12.44,13.97v19.13h-9.98v-17.78c0-4.46-2.46-6.92-6.28-6.92s-6.28,2.46-6.28,6.92v17.78h-10.04v-43.43Z" style="fill:#333; stroke-width:0px;"/><path d="M333.19,202.4c4.87,0,8.33,2.23,10.09,5.11v-4.64h10.04v32.75h-10.04v-4.64c-1.82,2.88-5.28,5.11-10.15,5.11-7.98,0-14.38-6.57-14.38-16.9s6.4-16.78,14.44-16.78ZM336.12,211.14c-3.76,0-7.16,2.82-7.16,8.04s3.4,8.16,7.16,8.16,7.16-2.88,7.16-8.1-3.35-8.1-7.16-8.1Z" style="fill:#333; stroke-width:0px;"/><path d="M370.63,235.61h-10.04v-32.75h10.04v5.46c2.29-3.46,5.87-5.81,10.27-5.81v10.62h-2.76c-4.75,0-7.51,1.64-7.51,7.28v15.2Z" style="fill:#333; stroke-width:0px;"/><path d="M.45,261.73h2.34v11.32c0,3.28,1.77,4.7,4.41,4.7s4.39-1.41,4.39-4.7v-11.32h2.34v11.29c0,4.65-3.05,6.78-6.75,6.78s-6.72-2.13-6.72-6.78v-11.29Z" style="fill:#333; stroke-width:0px;"/><path d="M28.11,271.66c0-2.87-1.57-4.34-3.93-4.34s-4.03,1.49-4.03,4.52v7.78h-2.34v-14.06h2.34v2c.92-1.46,2.62-2.26,4.52-2.26,3.26,0,5.75,2,5.75,6.03v8.29h-2.31v-7.96Z" style="fill:#333; stroke-width:0px;"/><path d="M33.86,261.68c0-.9.69-1.59,1.59-1.59.85,0,1.54.69,1.54,1.59s-.69,1.59-1.54,1.59c-.9,0-1.59-.69-1.59-1.59ZM34.24,265.55h2.34v14.06h-2.34v-14.06Z" style="fill:#333; stroke-width:0px;"/><path d="M46.38,265.32c2.21,0,4.23,1.13,5.21,2.75v-7.44h2.36v18.99h-2.36v-2.64c-.85,1.57-2.67,2.87-5.24,2.87-3.77,0-6.67-2.95-6.67-7.31s2.9-7.21,6.7-7.21ZM46.82,267.35c-2.57,0-4.75,1.87-4.75,5.18s2.18,5.26,4.75,5.26,4.77-1.92,4.77-5.24-2.21-5.21-4.77-5.21Z" style="fill:#333; stroke-width:0px;"/><path d="M64.03,279.84c-3.98,0-7.01-2.82-7.01-7.29s3.13-7.24,7.11-7.24,7.11,2.8,7.11,7.24-3.21,7.29-7.21,7.29ZM64.03,277.79c2.44,0,4.82-1.67,4.82-5.24s-2.34-5.21-4.75-5.21-4.7,1.67-4.7,5.21,2.18,5.24,4.62,5.24Z" style="fill:#333; stroke-width:0px;"/><path d="M79.3,279.84c-3.28,0-5.59-1.8-5.75-4.36h2.41c.13,1.36,1.33,2.39,3.31,2.39,1.85,0,2.87-.92,2.87-2.08,0-3.13-8.31-1.31-8.31-6.54,0-2.16,2.03-3.93,5.16-3.93s5.16,1.67,5.31,4.41h-2.34c-.1-1.41-1.18-2.44-3.05-2.44-1.72,0-2.75.82-2.75,1.95,0,3.34,8.16,1.52,8.26,6.54,0,2.31-2.03,4.05-5.13,4.05Z" style="fill:#333; stroke-width:0px;"/><path d="M102.16,265.32c3.77,0,6.67,2.82,6.67,7.21s-2.9,7.31-6.67,7.31c-2.57,0-4.39-1.39-5.26-2.82v9.26h-2.34v-20.74h2.34v2.59c.85-1.49,2.69-2.82,5.26-2.82ZM101.68,267.35c-2.54,0-4.77,1.95-4.77,5.21s2.23,5.24,4.77,5.24,4.77-1.95,4.77-5.26-2.18-5.18-4.77-5.18Z" style="fill:#333; stroke-width:0px;"/><path d="M118,279.84c-4,0-6.95-2.82-6.95-7.29s2.85-7.24,6.95-7.24,6.75,2.87,6.75,6.72c0,.51-.03.92-.08,1.41h-11.24c.18,2.85,2.18,4.41,4.57,4.41,2.1,0,3.44-1.08,3.95-2.59h2.51c-.72,2.57-2.98,4.57-6.47,4.57ZM113.46,271.56h8.88c.03-2.74-2.03-4.26-4.44-4.26-2.28,0-4.18,1.52-4.44,4.26Z" style="fill:#333; stroke-width:0px;"/><path d="M127.82,260.62h2.34v18.99h-2.34v-18.99Z" style="fill:#333; stroke-width:0px;"/><path d="M140.27,279.84c-3.98,0-7.01-2.82-7.01-7.29s3.13-7.24,7.11-7.24,7.11,2.8,7.11,7.24-3.21,7.29-7.21,7.29ZM140.27,277.79c2.44,0,4.82-1.67,4.82-5.24s-2.34-5.21-4.75-5.21-4.7,1.67-4.7,5.21,2.18,5.24,4.62,5.24Z" style="fill:#333; stroke-width:0px;"/><path d="M163.18,261.73c4.21,0,6.21,2.34,6.21,5.26,0,2.28-1.26,4.46-4.26,5.13l4.49,7.49h-2.8l-4.26-7.31h-2.82v7.31h-2.34v-17.89h5.77ZM163.18,263.65h-3.44v6.78h3.44c2.64,0,3.8-1.44,3.8-3.44s-1.13-3.34-3.8-3.34Z" style="fill:#333; stroke-width:0px;"/><path d="M172.63,261.68c0-.9.69-1.59,1.59-1.59.85,0,1.54.69,1.54,1.59s-.69,1.59-1.54,1.59c-.9,0-1.59-.69-1.59-1.59ZM173.01,265.55h2.34v14.06h-2.34v-14.06Z" style="fill:#333; stroke-width:0px;"/><path d="M185.46,279.84c-3.98,0-7.01-2.82-7.01-7.29s3.13-7.24,7.11-7.24,7.11,2.8,7.11,7.24-3.21,7.29-7.21,7.29ZM185.46,277.79c2.44,0,4.82-1.67,4.82-5.24s-2.34-5.21-4.75-5.21-4.7,1.67-4.7,5.21,2.18,5.24,4.62,5.24Z" style="fill:#333; stroke-width:0px;"/><path d="M218.94,266.91h-2.8c-.98-2.08-2.93-3.28-5.44-3.28-3.77,0-6.6,2.72-6.6,7.03s2.82,7.01,6.6,7.01c3.52,0,5.93-2.26,6.29-5.8h-7.13v-1.9h9.62v1.8c-.41,4.44-3.93,8.01-8.78,8.01s-8.98-3.75-8.98-9.11,3.95-9.14,8.98-9.14c3.77,0,6.9,1.95,8.24,5.39Z" style="fill:#333; stroke-width:0px;"/><path d="M224.9,279.61h-2.34v-14.06h2.34v2.28c.8-1.57,2.31-2.54,4.54-2.54v2.41h-.62c-2.23,0-3.93,1-3.93,4.26v7.65Z" style="fill:#333; stroke-width:0px;"/><path d="M237.93,265.32c2.62,0,4.41,1.33,5.24,2.8v-2.57h2.36v14.06h-2.36v-2.62c-.85,1.51-2.67,2.85-5.26,2.85-3.75,0-6.65-2.95-6.65-7.31s2.9-7.21,6.67-7.21ZM238.39,267.35c-2.57,0-4.75,1.87-4.75,5.18s2.18,5.26,4.75,5.26,4.77-1.92,4.77-5.24-2.21-5.21-4.77-5.21Z" style="fill:#333; stroke-width:0px;"/><path d="M259.77,271.66c0-2.87-1.57-4.34-3.93-4.34s-4.03,1.49-4.03,4.52v7.78h-2.34v-14.06h2.34v2c.92-1.46,2.62-2.26,4.52-2.26,3.26,0,5.75,2,5.75,6.03v8.29h-2.31v-7.96Z" style="fill:#333; stroke-width:0px;"/><path d="M271.73,265.32c2.21,0,4.23,1.13,5.21,2.75v-7.44h2.36v18.99h-2.36v-2.64c-.85,1.57-2.67,2.87-5.24,2.87-3.77,0-6.67-2.95-6.67-7.31s2.9-7.21,6.7-7.21ZM272.16,267.35c-2.57,0-4.75,1.87-4.75,5.18s2.18,5.26,4.75,5.26,4.77-1.92,4.77-5.24-2.21-5.21-4.77-5.21Z" style="fill:#333; stroke-width:0px;"/><path d="M289.33,279.84c-4,0-6.95-2.82-6.95-7.29s2.85-7.24,6.95-7.24,6.75,2.87,6.75,6.72c0,.51-.03.92-.08,1.41h-11.24c.18,2.85,2.18,4.41,4.57,4.41,2.1,0,3.44-1.08,3.95-2.59h2.52c-.72,2.57-2.98,4.57-6.47,4.57ZM284.79,271.56h8.88c.03-2.74-2.03-4.26-4.44-4.26-2.28,0-4.18,1.52-4.44,4.26Z" style="fill:#333; stroke-width:0px;"/><path d="M311.83,265.32c2.21,0,4.23,1.13,5.21,2.75v-7.44h2.36v18.99h-2.36v-2.64c-.85,1.57-2.67,2.87-5.24,2.87-3.77,0-6.67-2.95-6.67-7.31s2.9-7.21,6.7-7.21ZM312.27,267.35c-2.57,0-4.75,1.87-4.75,5.18s2.18,5.26,4.75,5.26,4.77-1.92,4.77-5.24-2.21-5.21-4.77-5.21Z" style="fill:#333; stroke-width:0px;"/><path d="M329.49,279.84c-3.98,0-7.01-2.82-7.01-7.29s3.13-7.24,7.11-7.24,7.11,2.8,7.11,7.24-3.21,7.29-7.21,7.29ZM329.49,277.79c2.44,0,4.82-1.67,4.82-5.24s-2.33-5.21-4.75-5.21-4.7,1.67-4.7,5.21,2.18,5.24,4.62,5.24Z" style="fill:#333; stroke-width:0px;"/><path d="M352.3,279.79c-3.59,0-6.13-2-6.18-4.95h2.49c.15,1.49,1.21,2.98,3.7,2.98,2.26,0,3.59-1.28,3.59-2.98,0-4.82-9.67-1.74-9.67-8.39,0-2.95,2.39-4.95,5.93-4.95s5.65,1.87,5.93,4.59h-2.57c-.15-1.21-1.28-2.57-3.46-2.59-1.93-.05-3.44.95-3.44,2.87,0,4.62,9.65,1.74,9.65,8.37,0,2.54-2.08,5.06-5.95,5.06Z" style="fill:#333; stroke-width:0px;"/><path d="M374.16,279.61h-2.33v-2.08c-.9,1.46-2.62,2.28-4.49,2.28-3.23,0-5.77-2-5.77-6.03v-8.24h2.31v7.93c0,2.85,1.57,4.31,3.93,4.31s4.03-1.49,4.03-4.52v-7.72h2.33v14.06Z" style="fill:#333; stroke-width:0px;"/><path d="M378.11,260.62h2.33v18.99h-2.33v-18.99Z" style="fill:#333; stroke-width:0px;"/></g></svg>